<svg id="visual" viewBox="0 0 2000 550" width="2000" height="550" xmlns="http://www.w3.org/2000/svg" xmlns:xlink="http://www.w3.org/1999/xlink" version="1.1"><rect x="0" y="0" width="2000" height="550" fill="#F7F8F9"></rect><path d="M0 116L66.7 114.5C133.3 113 266.7 110 400 120.2C533.3 130.3 666.7 153.7 800 163C933.3 172.3 1066.7 167.7 1200 157.2C1333.3 146.7 1466.7 130.3 1600 128.7C1733.3 127 1866.7 140 1933.3 146.5L2000 153L2000 0L1933.3 0C1866.7 0 1733.3 0 1600 0C1466.7 0 1333.3 0 1200 0C1066.7 0 933.3 0 800 0C666.7 0 533.3 0 400 0C266.7 0 133.3 0 66.7 0L0 0Z" fill="#ff914b"></path><path d="M0 97L66.7 94.2C133.3 91.3 266.7 85.7 400 82.2C533.3 78.7 666.7 77.3 800 85C933.3 92.7 1066.7 109.3 1200 115.7C1333.3 122 1466.7 118 1600 116.3C1733.3 114.7 1866.7 115.3 1933.3 115.7L2000 116L2000 0L1933.3 0C1866.7 0 1733.3 0 1600 0C1466.7 0 1333.3 0 1200 0C1066.7 0 933.3 0 800 0C666.7 0 533.3 0 400 0C266.7 0 133.3 0 66.7 0L0 0Z" fill="#7d4b2d"></path><path d="M0 52L66.7 50.5C133.3 49 266.7 46 400 50C533.3 54 666.7 65 800 67.3C933.3 69.7 1066.7 63.3 1200 57.2C1333.3 51 1466.7 45 1600 40.7C1733.3 36.3 1866.7 33.7 1933.3 32.3L2000 31L2000 0L1933.3 0C1866.7 0 1733.3 0 1600 0C1466.7 0 1333.3 0 1200 0C1066.7 0 933.3 0 800 0C666.7 0 533.3 0 400 0C266.7 0 133.3 0 66.7 0L0 0Z" fill="#0d0d0d"></path></svg>